<svg width="81" height="73" viewBox="0 0 81 73" fill="none" xmlns="http://www.w3.org/2000/svg">
<g id="&#240;&#159;&#166;&#134; icon &#34;logo google&#34;">
<path id="Vector" d="M80.5227 30.8751L80.1061 29.3124H41.6906V43.6876H64.6433C62.2603 53.6925 51.2023 58.9589 42.1698 58.9589C35.5976 58.9589 28.6698 56.5147 24.0844 52.5861C21.6651 50.4802 19.7394 47.9731 18.4175 45.2084C17.0956 42.4436 16.4034 39.4755 16.3806 36.4739C16.3806 30.4188 19.4584 24.3621 23.9369 20.3781C28.4154 16.394 35.1792 14.1649 41.9044 14.1649C49.6063 14.1649 55.1261 17.7807 57.1902 19.4297L68.744 9.26839C65.3547 6.63518 56.0439 0 41.5321 0C30.3358 0 19.6003 3.79176 11.7528 10.7072C4.00853 17.5167 0 27.3636 0 36.5C0 45.6364 3.7929 54.9912 11.2976 61.8545C19.3165 69.174 30.6731 73 42.367 73C53.0066 73 63.0915 69.3142 70.2792 62.6268C77.3453 56.0438 81 46.9351 81 37.3864C81 33.3665 80.5429 30.9794 80.5227 30.8751Z" fill="#DB4437"/>
</g>
</svg>
