<svg width="61" height="39" viewBox="0 0 61 39" fill="none" xmlns="http://www.w3.org/2000/svg">
<g id="&#240;&#159;&#166;&#134; icon &#34;logo linkedin&#34;">
<path id="Vector" d="M55.9631 0H5.19753C2.42361 0 0 1.26727 0 3.00782V35.3119C0 37.0619 2.42361 38.6214 5.19753 38.6214H55.9482C58.737 38.6214 60.828 37.0516 60.828 35.3119V3.00782C60.8443 1.26727 58.737 0 55.9631 0ZM18.8553 32.1928H10.1412V14.9899H18.8553V32.1928ZM14.7997 12.3744H14.7372C11.9484 12.3744 10.1425 11.0562 10.1425 9.40621C10.1425 7.72601 11.9959 6.43891 14.8472 6.43891C17.6985 6.43891 19.4432 7.71652 19.5057 9.40621C19.5043 11.0562 17.6985 12.3744 14.7997 12.3744ZM50.7031 32.1928H41.989V22.7866C41.989 20.5331 40.7208 18.9935 37.5681 18.9935C35.1594 18.9935 33.7337 20.028 33.0997 21.0357C32.862 21.3978 32.7982 21.8909 32.7982 22.3944V32.1928H24.0841V14.9899H32.7982V17.3839C34.0664 16.2374 36.0474 14.5873 40.657 14.5873C46.3773 14.5873 50.7045 16.9814 50.7045 22.1427L50.7031 32.1928Z" fill="white"/>
</g>
</svg>
