<svg width="61" height="39" viewBox="0 0 61 39" fill="none" xmlns="http://www.w3.org/2000/svg">
<g id="&#240;&#159;&#166;&#134; icon &#34;logo twitter&#34;">
<path id="Vector" d="M60.8281 4.57624C58.5463 5.3631 56.1321 5.8815 53.6618 6.11506C56.2579 4.90852 58.2103 2.99173 59.1528 0.724166C56.6982 1.86328 54.0173 2.66254 51.2248 3.08771C50.049 2.10963 48.6347 1.33155 47.0682 0.80075C45.5016 0.269949 43.8154 -0.00248155 42.112 1.7032e-05C35.2157 1.7032e-05 29.6347 4.36503 29.6347 9.74586C29.6298 10.4943 29.7379 11.2405 29.9566 11.9686C25.0113 11.7846 20.169 10.7834 15.7392 9.02901C11.3095 7.27463 7.38996 4.80571 4.23135 1.78022C3.12324 3.26283 2.5372 4.95445 2.5345 6.67828C2.5345 10.0576 4.756 13.0448 8.11041 14.7948C6.12301 14.7574 4.17634 14.3399 2.43566 13.5778V13.6985C2.43566 18.4256 6.74431 22.3581 12.4469 23.2533C11.3746 23.4801 10.2695 23.5951 9.15969 23.5952C8.3722 23.5963 7.58649 23.5357 6.81401 23.4142C8.39934 27.2864 13.0134 30.1025 18.4791 30.183C14.0378 32.8995 8.58515 34.3677 2.97804 34.3569C1.98276 34.3557 0.988413 34.3087 0 34.2161C5.70413 37.1069 12.3347 38.6359 19.1026 38.6213C42.0854 38.6213 54.6414 23.7662 54.6414 10.8824C54.6414 10.46 54.6274 10.0375 54.6021 9.62517C57.0391 8.24934 59.1474 6.5396 60.8281 4.57624Z" fill="white"/>
</g>
</svg>
